<mxfile host="app.diagrams.net" agent="Mozilla/5.0 (Windows NT 10.0; Win64; x64) AppleWebKit/537.36 (KHTML, like Gecko) Chrome/133.0.0.0 Safari/537.36" version="26.0.16">
  <diagram name="Page-1" id="WcQ6BuPvLBs3dkYlbzUP">
    <mxGraphModel dx="1687" dy="878" grid="0" gridSize="10" guides="1" tooltips="1" connect="1" arrows="1" fold="1" page="1" pageScale="1" pageWidth="850" pageHeight="1100" math="0" shadow="0">
      <root>
        <mxCell id="0" />
        <mxCell id="1" parent="0" />
        <mxCell id="9m-hkQI9TfSmz7dJIjQk-64" value="" style="rounded=0;whiteSpace=wrap;html=1;fillColor=#f5f5f5;fontColor=#333333;strokeColor=#666666;" vertex="1" parent="1">
          <mxGeometry x="74" y="154" width="703" height="706" as="geometry" />
        </mxCell>
        <mxCell id="9m-hkQI9TfSmz7dJIjQk-1" value="Teacher" style="shape=umlActor;verticalLabelPosition=bottom;verticalAlign=top;html=1;fontFamily=Comic Sans MS;fillColor=#d5e8d4;strokeColor=#82b366;" vertex="1" parent="1">
          <mxGeometry x="805" y="415" width="30" height="60" as="geometry" />
        </mxCell>
        <mxCell id="9m-hkQI9TfSmz7dJIjQk-2" value="Student" style="shape=umlActor;verticalLabelPosition=bottom;verticalAlign=top;html=1;fontFamily=Comic Sans MS;fillColor=#dae8fc;strokeColor=#6c8ebf;" vertex="1" parent="1">
          <mxGeometry x="15" y="415" width="30" height="60" as="geometry" />
        </mxCell>
        <mxCell id="9m-hkQI9TfSmz7dJIjQk-3" value="Admin" style="shape=umlActor;verticalLabelPosition=bottom;verticalAlign=top;html=1;fontFamily=Comic Sans MS;fillColor=#ffe6cc;strokeColor=#d79b00;" vertex="1" parent="1">
          <mxGeometry x="805" y="785" width="30" height="60" as="geometry" />
        </mxCell>
        <mxCell id="9m-hkQI9TfSmz7dJIjQk-6" value="Login" style="ellipse;whiteSpace=wrap;html=1;fontFamily=Comic Sans MS;fillColor=#fff2cc;strokeColor=#d6b656;" vertex="1" parent="1">
          <mxGeometry x="365" y="292" width="110" height="50" as="geometry" />
        </mxCell>
        <mxCell id="9m-hkQI9TfSmz7dJIjQk-51" style="edgeStyle=orthogonalEdgeStyle;rounded=0;orthogonalLoop=1;jettySize=auto;html=1;exitX=0.5;exitY=1;exitDx=0;exitDy=0;entryX=0.5;entryY=0;entryDx=0;entryDy=0;dashed=1;fillColor=#e1d5e7;strokeColor=#9673a6;" edge="1" parent="1" source="9m-hkQI9TfSmz7dJIjQk-7" target="9m-hkQI9TfSmz7dJIjQk-6">
          <mxGeometry relative="1" as="geometry" />
        </mxCell>
        <mxCell id="9m-hkQI9TfSmz7dJIjQk-7" value="Create Account" style="ellipse;whiteSpace=wrap;html=1;fontFamily=Comic Sans MS;fillColor=#fff2cc;strokeColor=#d6b656;" vertex="1" parent="1">
          <mxGeometry x="365" y="188" width="110" height="50" as="geometry" />
        </mxCell>
        <mxCell id="9m-hkQI9TfSmz7dJIjQk-8" value="Post Topic&lt;div&gt;Request&lt;/div&gt;" style="ellipse;whiteSpace=wrap;html=1;fontFamily=Comic Sans MS;fillColor=#fff2cc;strokeColor=#d6b656;" vertex="1" parent="1">
          <mxGeometry x="295" y="420" width="110" height="50" as="geometry" />
        </mxCell>
        <mxCell id="9m-hkQI9TfSmz7dJIjQk-9" value="Set Time &amp;amp; Payment" style="ellipse;whiteSpace=wrap;html=1;fontFamily=Comic Sans MS;fillColor=#fff2cc;strokeColor=#d6b656;" vertex="1" parent="1">
          <mxGeometry x="295" y="480" width="110" height="50" as="geometry" />
        </mxCell>
        <mxCell id="9m-hkQI9TfSmz7dJIjQk-10" value="Chat with Tutors" style="ellipse;whiteSpace=wrap;html=1;fontFamily=Comic Sans MS;fillColor=#fff2cc;strokeColor=#d6b656;" vertex="1" parent="1">
          <mxGeometry x="295" y="540" width="110" height="50" as="geometry" />
        </mxCell>
        <mxCell id="9m-hkQI9TfSmz7dJIjQk-11" value="Join Online Class" style="ellipse;whiteSpace=wrap;html=1;fontFamily=Comic Sans MS;fillColor=#fff2cc;strokeColor=#d6b656;" vertex="1" parent="1">
          <mxGeometry x="295" y="650" width="110" height="50" as="geometry" />
        </mxCell>
        <mxCell id="9m-hkQI9TfSmz7dJIjQk-12" value="Rate &amp;amp; Review Tutors" style="ellipse;whiteSpace=wrap;html=1;fontFamily=Comic Sans MS;fillColor=#fff2cc;strokeColor=#d6b656;" vertex="1" parent="1">
          <mxGeometry x="295" y="761" width="110" height="50" as="geometry" />
        </mxCell>
        <mxCell id="9m-hkQI9TfSmz7dJIjQk-15" value="View Student Requests" style="ellipse;whiteSpace=wrap;html=1;fontFamily=Comic Sans MS;fillColor=#fff2cc;strokeColor=#d6b656;" vertex="1" parent="1">
          <mxGeometry x="435" y="420" width="110" height="50" as="geometry" />
        </mxCell>
        <mxCell id="9m-hkQI9TfSmz7dJIjQk-16" value="Update Profile" style="ellipse;whiteSpace=wrap;html=1;fontFamily=Comic Sans MS;fillColor=#fff2cc;strokeColor=#d6b656;" vertex="1" parent="1">
          <mxGeometry x="365" y="359" width="110" height="50" as="geometry" />
        </mxCell>
        <mxCell id="9m-hkQI9TfSmz7dJIjQk-17" value="Apply to Teach" style="ellipse;whiteSpace=wrap;html=1;fontFamily=Comic Sans MS;fillColor=#fff2cc;strokeColor=#d6b656;" vertex="1" parent="1">
          <mxGeometry x="435" y="480" width="110" height="50" as="geometry" />
        </mxCell>
        <mxCell id="9m-hkQI9TfSmz7dJIjQk-18" value="Chat with Students" style="ellipse;whiteSpace=wrap;html=1;fontFamily=Comic Sans MS;fillColor=#fff2cc;strokeColor=#d6b656;" vertex="1" parent="1">
          <mxGeometry x="435" y="540" width="110" height="50" as="geometry" />
        </mxCell>
        <mxCell id="9m-hkQI9TfSmz7dJIjQk-19" value="Conduct Online Class" style="ellipse;whiteSpace=wrap;html=1;fontFamily=Comic Sans MS;fillColor=#fff2cc;strokeColor=#d6b656;" vertex="1" parent="1">
          <mxGeometry x="435" y="600" width="110" height="50" as="geometry" />
        </mxCell>
        <mxCell id="9m-hkQI9TfSmz7dJIjQk-21" value="Manage Users" style="ellipse;whiteSpace=wrap;html=1;fontFamily=Comic Sans MS;fillColor=#fff2cc;strokeColor=#d6b656;" vertex="1" parent="1">
          <mxGeometry x="425" y="761" width="110" height="50" as="geometry" />
        </mxCell>
        <mxCell id="9m-hkQI9TfSmz7dJIjQk-22" value="Monitor Content" style="ellipse;whiteSpace=wrap;html=1;fontFamily=Comic Sans MS;fillColor=#fff2cc;strokeColor=#d6b656;" vertex="1" parent="1">
          <mxGeometry x="497" y="700" width="110" height="50" as="geometry" />
        </mxCell>
        <mxCell id="9m-hkQI9TfSmz7dJIjQk-23" value="Manage Reviews" style="ellipse;whiteSpace=wrap;html=1;fontFamily=Comic Sans MS;fillColor=#fff2cc;strokeColor=#d6b656;" vertex="1" parent="1">
          <mxGeometry x="573" y="645" width="110" height="50" as="geometry" />
        </mxCell>
        <mxCell id="9m-hkQI9TfSmz7dJIjQk-29" value="" style="endArrow=none;html=1;rounded=0;exitX=0.5;exitY=0.5;exitDx=0;exitDy=0;exitPerimeter=0;entryX=0;entryY=0.5;entryDx=0;entryDy=0;" edge="1" parent="1" source="9m-hkQI9TfSmz7dJIjQk-2" target="9m-hkQI9TfSmz7dJIjQk-7">
          <mxGeometry width="50" height="50" relative="1" as="geometry">
            <mxPoint x="425" y="550" as="sourcePoint" />
            <mxPoint x="475" y="500" as="targetPoint" />
          </mxGeometry>
        </mxCell>
        <mxCell id="9m-hkQI9TfSmz7dJIjQk-30" value="" style="endArrow=none;html=1;rounded=0;exitX=0.5;exitY=0.5;exitDx=0;exitDy=0;exitPerimeter=0;entryX=0;entryY=0.5;entryDx=0;entryDy=0;" edge="1" parent="1" source="9m-hkQI9TfSmz7dJIjQk-2" target="9m-hkQI9TfSmz7dJIjQk-6">
          <mxGeometry width="50" height="50" relative="1" as="geometry">
            <mxPoint x="170" y="455" as="sourcePoint" />
            <mxPoint x="305" y="275" as="targetPoint" />
          </mxGeometry>
        </mxCell>
        <mxCell id="9m-hkQI9TfSmz7dJIjQk-31" value="" style="endArrow=none;html=1;rounded=0;exitX=0.5;exitY=0.5;exitDx=0;exitDy=0;exitPerimeter=0;entryX=0;entryY=0.5;entryDx=0;entryDy=0;" edge="1" parent="1" source="9m-hkQI9TfSmz7dJIjQk-2" target="9m-hkQI9TfSmz7dJIjQk-8">
          <mxGeometry width="50" height="50" relative="1" as="geometry">
            <mxPoint x="170" y="455" as="sourcePoint" />
            <mxPoint x="305" y="335" as="targetPoint" />
          </mxGeometry>
        </mxCell>
        <mxCell id="9m-hkQI9TfSmz7dJIjQk-32" value="" style="endArrow=none;html=1;rounded=0;exitX=0.5;exitY=0.5;exitDx=0;exitDy=0;exitPerimeter=0;entryX=0;entryY=0.5;entryDx=0;entryDy=0;" edge="1" parent="1" source="9m-hkQI9TfSmz7dJIjQk-2" target="9m-hkQI9TfSmz7dJIjQk-9">
          <mxGeometry width="50" height="50" relative="1" as="geometry">
            <mxPoint x="170" y="455" as="sourcePoint" />
            <mxPoint x="305" y="395" as="targetPoint" />
          </mxGeometry>
        </mxCell>
        <mxCell id="9m-hkQI9TfSmz7dJIjQk-33" value="" style="endArrow=none;html=1;rounded=0;exitX=0.5;exitY=0.5;exitDx=0;exitDy=0;exitPerimeter=0;entryX=0;entryY=0.5;entryDx=0;entryDy=0;" edge="1" parent="1" source="9m-hkQI9TfSmz7dJIjQk-2" target="9m-hkQI9TfSmz7dJIjQk-10">
          <mxGeometry width="50" height="50" relative="1" as="geometry">
            <mxPoint x="170" y="455" as="sourcePoint" />
            <mxPoint x="305" y="455" as="targetPoint" />
          </mxGeometry>
        </mxCell>
        <mxCell id="9m-hkQI9TfSmz7dJIjQk-34" value="" style="endArrow=none;html=1;rounded=0;exitX=0.5;exitY=0.5;exitDx=0;exitDy=0;exitPerimeter=0;entryX=0;entryY=0.5;entryDx=0;entryDy=0;" edge="1" parent="1" source="9m-hkQI9TfSmz7dJIjQk-2" target="9m-hkQI9TfSmz7dJIjQk-11">
          <mxGeometry width="50" height="50" relative="1" as="geometry">
            <mxPoint x="170" y="455" as="sourcePoint" />
            <mxPoint x="305" y="515" as="targetPoint" />
          </mxGeometry>
        </mxCell>
        <mxCell id="9m-hkQI9TfSmz7dJIjQk-35" value="" style="endArrow=none;html=1;rounded=0;exitX=0.5;exitY=0.5;exitDx=0;exitDy=0;exitPerimeter=0;entryX=0;entryY=0.5;entryDx=0;entryDy=0;" edge="1" parent="1" source="9m-hkQI9TfSmz7dJIjQk-2" target="9m-hkQI9TfSmz7dJIjQk-12">
          <mxGeometry width="50" height="50" relative="1" as="geometry">
            <mxPoint x="170" y="455" as="sourcePoint" />
            <mxPoint x="305" y="575" as="targetPoint" />
          </mxGeometry>
        </mxCell>
        <mxCell id="9m-hkQI9TfSmz7dJIjQk-37" value="" style="endArrow=none;html=1;rounded=0;exitX=0.5;exitY=0.5;exitDx=0;exitDy=0;exitPerimeter=0;entryX=1;entryY=0.5;entryDx=0;entryDy=0;" edge="1" parent="1" source="9m-hkQI9TfSmz7dJIjQk-1" target="9m-hkQI9TfSmz7dJIjQk-7">
          <mxGeometry width="50" height="50" relative="1" as="geometry">
            <mxPoint x="498" y="205" as="sourcePoint" />
            <mxPoint x="544.9999999999998" y="215" as="targetPoint" />
          </mxGeometry>
        </mxCell>
        <mxCell id="9m-hkQI9TfSmz7dJIjQk-38" value="" style="endArrow=none;html=1;rounded=0;exitX=0.5;exitY=0.5;exitDx=0;exitDy=0;exitPerimeter=0;entryX=1;entryY=0.5;entryDx=0;entryDy=0;" edge="1" parent="1" source="9m-hkQI9TfSmz7dJIjQk-1" target="9m-hkQI9TfSmz7dJIjQk-6">
          <mxGeometry width="50" height="50" relative="1" as="geometry">
            <mxPoint x="508" y="455" as="sourcePoint" />
            <mxPoint x="544.9999999999998" y="325" as="targetPoint" />
          </mxGeometry>
        </mxCell>
        <mxCell id="9m-hkQI9TfSmz7dJIjQk-39" value="" style="endArrow=none;html=1;rounded=0;exitX=0.5;exitY=0.5;exitDx=0;exitDy=0;exitPerimeter=0;entryX=1;entryY=0.5;entryDx=0;entryDy=0;" edge="1" parent="1" source="9m-hkQI9TfSmz7dJIjQk-1" target="9m-hkQI9TfSmz7dJIjQk-15">
          <mxGeometry width="50" height="50" relative="1" as="geometry">
            <mxPoint x="508" y="455" as="sourcePoint" />
            <mxPoint x="643" y="335" as="targetPoint" />
          </mxGeometry>
        </mxCell>
        <mxCell id="9m-hkQI9TfSmz7dJIjQk-40" value="" style="endArrow=none;html=1;rounded=0;exitX=0.5;exitY=0.5;exitDx=0;exitDy=0;exitPerimeter=0;entryX=1;entryY=0.5;entryDx=0;entryDy=0;" edge="1" parent="1" source="9m-hkQI9TfSmz7dJIjQk-1" target="9m-hkQI9TfSmz7dJIjQk-16">
          <mxGeometry width="50" height="50" relative="1" as="geometry">
            <mxPoint x="508" y="455" as="sourcePoint" />
            <mxPoint x="643" y="395" as="targetPoint" />
          </mxGeometry>
        </mxCell>
        <mxCell id="9m-hkQI9TfSmz7dJIjQk-41" value="" style="endArrow=none;html=1;rounded=0;exitX=0.5;exitY=0.5;exitDx=0;exitDy=0;exitPerimeter=0;entryX=1;entryY=0.5;entryDx=0;entryDy=0;" edge="1" parent="1" source="9m-hkQI9TfSmz7dJIjQk-1" target="9m-hkQI9TfSmz7dJIjQk-17">
          <mxGeometry width="50" height="50" relative="1" as="geometry">
            <mxPoint x="508" y="455" as="sourcePoint" />
            <mxPoint x="643" y="455" as="targetPoint" />
          </mxGeometry>
        </mxCell>
        <mxCell id="9m-hkQI9TfSmz7dJIjQk-42" value="" style="endArrow=none;html=1;rounded=0;exitX=0.5;exitY=0.5;exitDx=0;exitDy=0;exitPerimeter=0;entryX=1;entryY=0.5;entryDx=0;entryDy=0;" edge="1" parent="1" source="9m-hkQI9TfSmz7dJIjQk-1" target="9m-hkQI9TfSmz7dJIjQk-18">
          <mxGeometry width="50" height="50" relative="1" as="geometry">
            <mxPoint x="508" y="455" as="sourcePoint" />
            <mxPoint x="643" y="515" as="targetPoint" />
          </mxGeometry>
        </mxCell>
        <mxCell id="9m-hkQI9TfSmz7dJIjQk-43" value="" style="endArrow=none;html=1;rounded=0;exitX=0.5;exitY=0.5;exitDx=0;exitDy=0;exitPerimeter=0;entryX=1;entryY=0.5;entryDx=0;entryDy=0;" edge="1" parent="1" source="9m-hkQI9TfSmz7dJIjQk-1" target="9m-hkQI9TfSmz7dJIjQk-19">
          <mxGeometry width="50" height="50" relative="1" as="geometry">
            <mxPoint x="508" y="455" as="sourcePoint" />
            <mxPoint x="643" y="575" as="targetPoint" />
          </mxGeometry>
        </mxCell>
        <mxCell id="9m-hkQI9TfSmz7dJIjQk-44" value="" style="endArrow=none;html=1;rounded=0;exitX=0.5;exitY=0.5;exitDx=0;exitDy=0;exitPerimeter=0;entryX=1;entryY=0.5;entryDx=0;entryDy=0;" edge="1" parent="1" source="9m-hkQI9TfSmz7dJIjQk-3" target="9m-hkQI9TfSmz7dJIjQk-21">
          <mxGeometry width="50" height="50" relative="1" as="geometry">
            <mxPoint x="843" y="379" as="sourcePoint" />
            <mxPoint x="978" y="559" as="targetPoint" />
          </mxGeometry>
        </mxCell>
        <mxCell id="9m-hkQI9TfSmz7dJIjQk-46" value="" style="endArrow=none;html=1;rounded=0;exitX=0.5;exitY=0.5;exitDx=0;exitDy=0;exitPerimeter=0;entryX=0.5;entryY=1;entryDx=0;entryDy=0;" edge="1" parent="1" source="9m-hkQI9TfSmz7dJIjQk-3" target="9m-hkQI9TfSmz7dJIjQk-23">
          <mxGeometry width="50" height="50" relative="1" as="geometry">
            <mxPoint x="858" y="644" as="sourcePoint" />
            <mxPoint x="993" y="644" as="targetPoint" />
          </mxGeometry>
        </mxCell>
        <mxCell id="9m-hkQI9TfSmz7dJIjQk-52" value="&lt;font face=&quot;Comic Sans MS&quot;&gt;&amp;lt;&amp;lt;include&amp;gt;&amp;gt;&lt;/font&gt;" style="text;html=1;align=center;verticalAlign=middle;resizable=0;points=[];autosize=1;strokeColor=none;fillColor=none;" vertex="1" parent="1">
          <mxGeometry x="343" y="248" width="75" height="27" as="geometry" />
        </mxCell>
        <mxCell id="9m-hkQI9TfSmz7dJIjQk-55" style="edgeStyle=orthogonalEdgeStyle;rounded=0;orthogonalLoop=1;jettySize=auto;html=1;exitX=0.5;exitY=1;exitDx=0;exitDy=0;entryX=0.5;entryY=0;entryDx=0;entryDy=0;dashed=1;fillColor=#e1d5e7;strokeColor=#9673a6;" edge="1" parent="1" source="9m-hkQI9TfSmz7dJIjQk-10" target="9m-hkQI9TfSmz7dJIjQk-11">
          <mxGeometry relative="1" as="geometry">
            <mxPoint x="360" y="310" as="sourcePoint" />
            <mxPoint x="360" y="370" as="targetPoint" />
          </mxGeometry>
        </mxCell>
        <mxCell id="9m-hkQI9TfSmz7dJIjQk-56" value="&lt;font face=&quot;Comic Sans MS&quot;&gt;&amp;lt;&amp;lt;extend&amp;gt;&amp;gt;&lt;/font&gt;" style="text;html=1;align=center;verticalAlign=middle;resizable=0;points=[];autosize=1;strokeColor=none;fillColor=none;" vertex="1" parent="1">
          <mxGeometry x="274" y="606" width="80" height="30" as="geometry" />
        </mxCell>
        <mxCell id="9m-hkQI9TfSmz7dJIjQk-57" value="Handle Payments" style="ellipse;whiteSpace=wrap;html=1;fontFamily=Comic Sans MS;fillColor=#fff2cc;strokeColor=#d6b656;" vertex="1" parent="1">
          <mxGeometry x="653" y="590" width="110" height="50" as="geometry" />
        </mxCell>
        <mxCell id="9m-hkQI9TfSmz7dJIjQk-58" value="" style="endArrow=none;html=1;rounded=0;exitX=0.5;exitY=0.5;exitDx=0;exitDy=0;exitPerimeter=0;entryX=0.5;entryY=1;entryDx=0;entryDy=0;" edge="1" parent="1" source="9m-hkQI9TfSmz7dJIjQk-3" target="9m-hkQI9TfSmz7dJIjQk-57">
          <mxGeometry width="50" height="50" relative="1" as="geometry">
            <mxPoint x="858" y="644" as="sourcePoint" />
            <mxPoint x="993" y="704" as="targetPoint" />
          </mxGeometry>
        </mxCell>
        <mxCell id="9m-hkQI9TfSmz7dJIjQk-59" style="edgeStyle=orthogonalEdgeStyle;rounded=0;orthogonalLoop=1;jettySize=auto;html=1;exitX=0.5;exitY=1;exitDx=0;exitDy=0;entryX=0.5;entryY=0;entryDx=0;entryDy=0;dashed=1;fillColor=#e1d5e7;strokeColor=#9673a6;" edge="1" parent="1" source="9m-hkQI9TfSmz7dJIjQk-11" target="9m-hkQI9TfSmz7dJIjQk-12">
          <mxGeometry relative="1" as="geometry">
            <mxPoint x="407" y="700" as="sourcePoint" />
            <mxPoint x="407" y="760" as="targetPoint" />
          </mxGeometry>
        </mxCell>
        <mxCell id="9m-hkQI9TfSmz7dJIjQk-60" value="&lt;font face=&quot;Comic Sans MS&quot;&gt;&amp;lt;&amp;lt;include&amp;gt;&amp;gt;&lt;/font&gt;" style="text;html=1;align=center;verticalAlign=middle;resizable=0;points=[];autosize=1;strokeColor=none;fillColor=none;" vertex="1" parent="1">
          <mxGeometry x="277" y="718" width="75" height="27" as="geometry" />
        </mxCell>
        <mxCell id="9m-hkQI9TfSmz7dJIjQk-62" value="" style="endArrow=none;html=1;rounded=0;exitX=0.5;exitY=0.5;exitDx=0;exitDy=0;exitPerimeter=0;entryX=0;entryY=0.5;entryDx=0;entryDy=0;" edge="1" parent="1" source="9m-hkQI9TfSmz7dJIjQk-2" target="9m-hkQI9TfSmz7dJIjQk-16">
          <mxGeometry width="50" height="50" relative="1" as="geometry">
            <mxPoint x="40" y="455" as="sourcePoint" />
            <mxPoint x="305" y="395" as="targetPoint" />
          </mxGeometry>
        </mxCell>
        <mxCell id="9m-hkQI9TfSmz7dJIjQk-63" value="" style="endArrow=none;html=1;rounded=0;exitX=0.5;exitY=0.5;exitDx=0;exitDy=0;exitPerimeter=0;entryX=0.5;entryY=1;entryDx=0;entryDy=0;" edge="1" parent="1" source="9m-hkQI9TfSmz7dJIjQk-3" target="9m-hkQI9TfSmz7dJIjQk-22">
          <mxGeometry width="50" height="50" relative="1" as="geometry">
            <mxPoint x="830" y="825" as="sourcePoint" />
            <mxPoint x="490" y="821" as="targetPoint" />
          </mxGeometry>
        </mxCell>
        <mxCell id="9m-hkQI9TfSmz7dJIjQk-65" value="&lt;font face=&quot;Comic Sans MS&quot;&gt;Tutor Connect Platform&lt;/font&gt;" style="text;html=1;align=center;verticalAlign=middle;resizable=0;points=[];autosize=1;strokeColor=none;fillColor=none;" vertex="1" parent="1">
          <mxGeometry x="345" y="122" width="151" height="27" as="geometry" />
        </mxCell>
      </root>
    </mxGraphModel>
  </diagram>
</mxfile>
